# xmcd
#
# Track frame offsets: 
#        183
#        22858
#        56705
#        67558
#        114560
#        140148
#        158520
#        170415
#        179385
#        188933
#        212243
#        231898
#        240015
#        257175
#
# Disc length: 3707 seconds
#
# Revision: 0
# Processed by: cddbd v1.5.2PL0 Copyright (c) Steve Scherf et al.
# Submitted via: ExactAudioCopyFreeDBPlugin 1.0
#
DISCID=b70e790e
DTITLE=Bill Harris - The Fabulous Bill Harris
DYEAR=1988
DGENRE=Blues
TTITLE0=Blues Ain't Nothing - Key To The Highway
TTITLE1=Blues Monologue - Sitting On Top Of The World
TTITLE2=Ma Rainey
TTITLE3=Nuages
TTITLE4=Bach's Prelude In D Minor
TTITLE5=Spring - Golden Sunset
TTITLE6=Satin Doll
TTITLE7=Out Of Nowhere
TTITLE8=Stomping At The Savoy
TTITLE9=Possessed
TTITLE10=Syeda's Song Flute
TTITLE11=Jazz Band
TTITLE12=The Wes Mongomery Suite - Remember Wes
TTITLE13=The Wes Mongomery Suite - Sweet Fannie Louise
EXTD=
EXTT0=
EXTT1=
EXTT2=
EXTT3=
EXTT4=
EXTT5=
EXTT6=
EXTT7=
EXTT8=
EXTT9=
EXTT10=
EXTT11=
EXTT12=
EXTT13=
PLAYORDER=
